# xmcd
#
# Track frame offsets:
#	150
#	12651
#	27343
#	41417
#	54703
#	66800
#	80633
#	93428
#	105341
#	117528
#	128902
#	139468
#	149387
#	162529
#	174029
#	184539
#	196622
#	208478
#	220557
#	231668
#	243613
#	258938
#	275957
#	286754
#
# Disc length: 3991 seconds
#
# Revision: 1
# Processed by: cddbd v1.5.2PL0 Copyright (c) Steve Scherf et al.
# Submitted via: audiograbber 1.83.01
#
DISCID=700f9518
DTITLE=Disc 1 - The Roots 1941 - 1957 - New Orleans Roots of Soul
DYEAR=2016
DGENRE=Vintage Blues
TTITLE0=Champion Jack Dupree - Junker's Blues
TTITLE1=Reverend Utah Smith - Two Wings_Every Man's Got to Lay Down and Die
TTITLE2=Professor Longhair - Hey Little Girl
TTITLE3=Lonnie Johnson - Blues Stay Away From Me
TTITLE4=Professor Longhair - Her Mind is Gone
TTITLE5=Roy Brown - Hard Luck Blues
TTITLE6=Little Mr. Midnight - Four O'Clock Blues
TTITLE7=Lonnie Johnson - Me and My Crazy Self
TTITLE8=Dave Bartholomew - High Flying Woman
TTITLE9=Lloyd Price - Lawdy Miss Clawdy
TTITLE10=Shirley and Lee - I'm Gone
TTITLE11=Lloyd Price - Jimmie Lee
TTITLE12=Reverend Utah Smith - Two Wings
TTITLE13=Frankie Lee Sims - Lucy Mae Blues
TTITLE14=Little Sonny Jones - Tend to Your Business Blues
TTITLE15=Sugar Boy Crawford - What's Wrong
TTITLE16=Paul Gayten - Down Boy
TTITLE17=Guitar Slim - Reap What You Sow
TTITLE18=Dave Bartholomew - Another Mule
TTITLE19=Lil' Millett and his Creoles - Rich Woman
TTITLE20=Louis Armstrong - Mack the Knife
TTITLE21=Mahalia Jackson - Just a Little While to Stay Here
TTITLE22=Fats Domino - Blue Monday
TTITLE23=Slim Harpo - Got Love If You Want
EXTD=Produced in France
EXTT0=
EXTT1=
EXTT2=
EXTT3=
EXTT4=
EXTT5=
EXTT6=
EXTT7=
EXTT8=
EXTT9=
EXTT10=
EXTT11=
EXTT12=
EXTT13=
EXTT14=
EXTT15=
EXTT16=
EXTT17=
EXTT18=
EXTT19=
EXTT20=
EXTT21=
EXTT22=
EXTT23=
PLAYORDER=
